<mxfile host="app.diagrams.net" modified="2023-08-09T08:31:37.450Z" agent="Mozilla/5.0 (Windows NT 10.0; Win64; x64) AppleWebKit/537.36 (KHTML, like Gecko) Chrome/115.0.0.0 Safari/537.36 Edg/115.0.1901.188" version="21.6.7" etag="-degCqzlAIijq_zpo3iW" type="github">
  <diagram name="페이지-1" id="OF_56JvgA0TSEnhswTRg">
    <mxGraphModel>
      <root>
        <mxCell id="0" />
        <mxCell id="1" parent="0" />
      </root>
    </mxGraphModel>
  </diagram>
</mxfile>
